<?xml version="1.0" encoding="utf-8"?>
<!-- Generator: Adobe Illustrator 17.0.0, SVG Export Plug-In . SVG Version: 6.00 Build 0)  -->
<!DOCTYPE svg PUBLIC "-//W3C//DTD SVG 1.1//EN" "http://www.w3.org/Graphics/SVG/1.1/DTD/svg11.dtd">
<svg version="1.1" id="Capa_1" xmlns="http://www.w3.org/2000/svg" xmlns:xlink="http://www.w3.org/1999/xlink" x="0px" y="0px"
	 width="26px" height="26px" viewBox="0 0 26 26" enable-background="new 0 0 26 26" xml:space="preserve">
<g>
	<path d="M13.261,10.098c-1.495,0-2.882,1.251-2.882,3.535c0,1.685,0.951,2.474,2.012,2.474c1.468,0,2.937-1.441,2.937-3.67
		C15.328,10.777,14.321,10.098,13.261,10.098z"/>
	<path d="M13-0.041c-7.191,0-13.021,5.83-13.021,13.021S5.809,26,13,26c7.191,0,13.021-5.83,13.021-13.021S20.191-0.041,13-0.041z
		 M20.683,16.058c-0.707,0.924-1.876,1.712-3.126,1.712c-1.17,0-1.876-0.734-2.066-1.685c-0.87,1.359-2.284,1.849-3.371,1.849
		c-1.495,0-3.833-1.006-3.833-4.35c0-3.616,2.555-5.465,4.758-5.465c1.278,0,2.338,0.598,2.855,1.74l0.272-1.414h1.849l-1.06,5.465
		c-0.082,0.408-0.163,0.788-0.163,1.224c0,0.843,0.517,1.087,0.87,1.087c0.625,0,1.305-0.626,1.631-1.087
		c0.652-0.952,0.951-2.719,0.951-3.671c0-3.018-2.093-6.443-6.77-6.443c-4.377,0-7.803,3.398-7.803,7.857
		c0,3.127,1.74,5.954,4.677,7.069c0.951,0.38,1.985,0.543,3.099,0.543c1.278,0,3.425-0.19,5.519-1.114l0.462,1.685
		c-0.788,0.326-2.854,1.06-5.845,1.06c-2.502,0-4.758-0.626-6.58-2.202c-1.278-1.114-3.072-3.317-3.072-7.068
		c0-5.465,4.024-9.461,9.461-9.461c4.758,0,8.591,3.018,8.591,8.047C21.988,12.931,21.608,14.834,20.683,16.058z"/>
</g>
</svg>
