<?xml version="1.0" encoding="utf-8"?>
<!-- Generator: Adobe Illustrator 17.0.0, SVG Export Plug-In . SVG Version: 6.00 Build 0)  -->
<!DOCTYPE svg PUBLIC "-//W3C//DTD SVG 1.1//EN" "http://www.w3.org/Graphics/SVG/1.1/DTD/svg11.dtd">
<svg version="1.1" id="Capa_1" xmlns="http://www.w3.org/2000/svg" xmlns:xlink="http://www.w3.org/1999/xlink" x="0px" y="0px"
	 width="26px" height="26px" viewBox="0 0 26 26" enable-background="new 0 0 26 26" xml:space="preserve">
<g>
	<path d="M9.858,13.521h-3.33v2.883h3.176c0.477-0.013,1.36-0.154,1.36-1.401C11.065,13.506,9.858,13.521,9.858,13.521z"/>
	<path d="M10.667,10.574c0-1.122-0.809-1.122-0.809-1.122H9.429H6.528v2.407h3.124C10.19,11.859,10.667,11.696,10.667,10.574z"/>
	<path d="M18.383,11.859c-1.768,0-2.013,1.662-2.013,1.662h3.758C20.128,13.521,20.151,11.859,18.383,11.859z"/>
	<path d="M13.018-0.036C5.828-0.036,0,5.792,0,12.982S5.828,26,13.018,26s13.018-5.828,13.018-13.018S20.208-0.036,13.018-0.036z
		 M15.879,8.17h4.719v1.329h-4.719V8.17z M13.492,15.136c0,3.292-3.633,3.184-3.633,3.184h-3.33H6.43H3.905V7.535H6.43h0.098h3.33
		c1.808,0,3.238,0.942,3.238,2.872c0,1.93-1.746,2.052-1.746,2.052C13.65,12.459,13.492,15.136,13.492,15.136z M18.405,16.837
		c1.902,0,1.835-1.16,1.835-1.16h2.012c0,3.079-3.913,2.868-3.913,2.868c-4.697,0-4.396-4.122-4.396-4.122s-0.004-4.144,4.395-4.144
		c4.631,0,3.982,4.681,3.982,4.681h-5.928C16.393,16.964,18.405,16.837,18.405,16.837z"/>
</g>
</svg>
