<?xml version="1.0" encoding="utf-8"?>
<!-- Generator: Adobe Illustrator 19.0.0, SVG Export Plug-In . SVG Version: 6.00 Build 0)  -->
<svg version="1.1" id="Capa_1" xmlns="http://www.w3.org/2000/svg" xmlns:xlink="http://www.w3.org/1999/xlink" x="0px" y="0px"
	 viewBox="-284 407.9 26 26" style="enable-background:new -284 407.9 26 26;" xml:space="preserve">
<path d="M-267.9,420.9l9.3-9.3c0.9-0.9,0.9-2.2,0-3.1c-0.9-0.9-2.2-0.9-3.1,0l-9.3,9.3l-9.3-9.3c-0.9-0.9-2.2-0.9-3.1,0
	c-0.9,0.9-0.9,2.2,0,3.1l9.3,9.3l-9.3,9.3c-0.9,0.9-0.9,2.2,0,3.1c0.9,0.9,2.2,0.9,3.1,0l9.3-9.3l9.3,9.3c0.9,0.9,2.2,0.9,3.1,0
	c0.9-0.9,0.9-2.2,0-3.1L-267.9,420.9z"/>
</svg>
