<?xml version="1.0" encoding="utf-8"?>
<!-- Generator: Adobe Illustrator 17.0.0, SVG Export Plug-In . SVG Version: 6.00 Build 0)  -->
<!DOCTYPE svg PUBLIC "-//W3C//DTD SVG 1.1//EN" "http://www.w3.org/Graphics/SVG/1.1/DTD/svg11.dtd">
<svg version="1.1" id="Capa_1" xmlns="http://www.w3.org/2000/svg" xmlns:xlink="http://www.w3.org/1999/xlink" x="0px" y="0px"
	 width="26px" height="26px" viewBox="0 0 26 26" enable-background="new 0 0 26 26" xml:space="preserve">
<g>
	<path d="M16.601,6.008H9.517c-2.065,0-3.745,1.68-3.745,3.745v7.559c0,2.065,1.68,3.745,3.745,3.745h7.084
		c2.065,0,3.745-1.68,3.745-3.745V9.753C20.346,7.688,18.666,6.008,16.601,6.008z M17.599,13.522
		c-0.026,1.212-0.504,2.346-1.346,3.195c-0.852,0.859-1.987,1.332-3.195,1.332c-2.504,0-4.541-2.037-4.541-4.541
		c0-1.196,0.457-2.329,1.286-3.19c0.841-0.872,1.958-1.353,3.146-1.353c0.042,0,0.085,0.001,0.127,0.002
		c1.42,0.041,2.595,0.517,3.4,1.376C17.239,11.157,17.627,12.256,17.599,13.522z M17.856,9.784c-0.603,0-1.093-0.489-1.093-1.093
		s0.489-1.093,1.093-1.093c0.603,0,1.093,0.489,1.093,1.093S18.46,9.784,17.856,9.784z"/>
	<path d="M13.04,10.258c-0.03-0.001-0.06-0.001-0.09-0.001c-1.732,0-3.141,1.458-3.141,3.251c0,1.792,1.458,3.249,3.249,3.249
		c1.782,0,3.21-1.434,3.25-3.264C16.351,11.529,15.129,10.319,13.04,10.258z"/>
	<path d="M12.895,0C5.658,0-0.209,5.867-0.209,13.105s5.867,13.105,13.105,13.105S26,20.342,26,13.105S20.133,0,12.895,0z
		 M21.637,17.312c0,2.777-2.259,5.037-5.037,5.037H9.517c-2.777,0-5.037-2.259-5.037-5.037V9.753c0-2.777,2.259-5.037,5.037-5.037
		h7.084c2.777,0,5.037,2.259,5.037,5.037V17.312z"/>
</g>
</svg>
