<?xml version="1.0" encoding="utf-8"?>
<!-- Generator: Adobe Illustrator 17.0.0, SVG Export Plug-In . SVG Version: 6.00 Build 0)  -->
<!DOCTYPE svg PUBLIC "-//W3C//DTD SVG 1.1//EN" "http://www.w3.org/Graphics/SVG/1.1/DTD/svg11.dtd">
<svg version="1.1" id="Capa_1" xmlns="http://www.w3.org/2000/svg" xmlns:xlink="http://www.w3.org/1999/xlink" x="0px" y="0px"
	 width="82px" height="51px" viewBox="0 0 82 51" enable-background="new 0 0 82 51" xml:space="preserve">
<g>
	<rect x="6.429" y="40.241" fill="#1E1E1C" width="11.623" height="11.317"/>
	<polygon fill="#FFFFFF" points="6.429,40.241 18.052,40.241 18.052,51.558 26.142,51.558 26.142,51.219 26.142,21.58 18.052,21.58 
		18.052,33.284 6.429,33.284 6.429,21.58 0,21.58 0,51.558 6.429,51.558 	"/>
	<path fill="#1E1E1C" d="M43.362,37.233c-0.976-0.987-2.325-1.128-3.069-1.128c-1.255,0-2.232,0.329-3.022,1.128
		c-0.511,0.564-0.976,1.316-1.116,2.256h8.415C44.384,38.69,43.92,37.797,43.362,37.233z"/>
	<path fill="#010202" d="M6.429,33.284h11.623V21.58h8.09v29.639h6.278c-0.297-0.237-0.587-0.494-0.867-0.778
		c-1.348-1.363-3.069-3.948-3.069-7.944c0-3.525,1.302-6.346,3.115-8.132c1.72-1.692,4.417-3.056,8.508-3.056
		c2.417,0,5.533,0.517,7.997,2.867c2.929,2.82,3.301,6.487,3.301,8.837v0.799H35.923c0,1.128,0.418,2.632,1.302,3.525
		c0.465,0.47,1.395,1.034,3.069,1.034c0.186,0,1.488-0.047,2.417-0.564c0.465-0.282,0.976-0.752,1.302-1.41h7.113
		c-0.325,1.175-0.976,2.82-2.51,4.324c-0.171,0.168-0.362,0.332-0.557,0.496h6.976V31.316h7.439v19.903h2.71l8.647-13.093h-8.368
		v-6.158H82V0.004H0V21.58h6.429V33.284z M58.753,18.343c2.325,0,4.184,1.88,4.184,4.23c0,2.35-1.859,4.23-4.184,4.23
		c-2.324,0-4.184-1.88-4.184-4.23C54.569,20.223,56.429,18.343,58.753,18.343z"/>
	<polygon fill="#1E1E1C" points="77.389,45.432 73.459,51.219 82,51.219 82,38.384 77.413,45.395 	"/>
	<path fill="#FFFFFF" d="M48.615,50.723c1.534-1.504,2.185-3.149,2.51-4.324h-7.113c-0.325,0.658-0.837,1.128-1.302,1.41
		c-0.93,0.517-2.231,0.564-2.417,0.564c-1.674,0-2.603-0.564-3.069-1.034c-0.883-0.893-1.302-2.397-1.302-3.525h15.482v-0.799
		c0-2.35-0.372-6.017-3.301-8.837c-2.464-2.35-5.579-2.867-7.997-2.867c-4.091,0-6.788,1.363-8.508,3.056
		c-1.813,1.786-3.115,4.607-3.115,8.132c0,3.995,1.72,6.581,3.069,7.944c0.28,0.284,0.57,0.541,0.867,0.778h15.638
		C48.254,51.056,48.444,50.891,48.615,50.723z M37.271,37.233c0.79-0.799,1.767-1.128,3.022-1.128c0.744,0,2.092,0.141,3.069,1.128
		c0.558,0.564,1.023,1.457,1.209,2.256h-8.415C36.295,38.549,36.76,37.797,37.271,37.233z"/>
	<path fill="#FFFFFF" d="M58.753,26.804c2.325,0,4.184-1.88,4.184-4.23c0-2.35-1.859-4.23-4.184-4.23
		c-2.324,0-4.184,1.88-4.184,4.23C54.569,24.924,56.429,26.804,58.753,26.804z"/>
	<rect x="55.034" y="31.316" fill="#FFFFFF" width="7.439" height="19.903"/>
	<polygon fill="#FFFFFF" points="65.461,38.126 73.83,38.126 65.183,51.219 73.459,51.219 77.389,45.432 77.413,45.395 82,38.384 
		82,31.968 65.461,31.968 	"/>
</g>
</svg>
